<?xml version="1.0" standalone="no"?>
<!DOCTYPE svg PUBLIC "-//W3C//DTD SVG 20010904//EN"
 "http://www.w3.org/TR/2001/REC-SVG-20010904/DTD/svg10.dtd">
<svg version="1.0" xmlns="http://www.w3.org/2000/svg"
 width="700.000000pt" height="700.000000pt" viewBox="0 0 700.000000 700.000000"
 preserveAspectRatio="xMidYMid meet">
<metadata>
Created by potrace 1.14, written by Peter Selinger 2001-2017
</metadata>
<g transform="translate(0.000000,700.000000) scale(0.100000,-0.100000)"
fill="#000000" stroke="none">
<path d="M3259 6946 c-2 -2 -40 -7 -84 -10 -106 -9 -204 -21 -258 -32 -12 -2
-35 -6 -52 -8 -16 -3 -52 -10 -80 -16 -27 -7 -61 -14 -75 -16 -133 -25 -431
-120 -575 -183 -22 -10 -65 -29 -95 -42 -759 -331 -1422 -1004 -1755 -1779
-64 -149 -155 -410 -169 -485 -2 -11 -9 -40 -16 -65 -13 -50 -13 -50 -36 -170
-9 -47 -18 -94 -20 -105 -2 -11 -7 -40 -10 -65 -3 -25 -7 -56 -9 -69 -19 -117
-27 -551 -13 -717 37 -433 175 -904 379 -1294 54 -103 155 -277 169 -290 3 -3
28 -39 55 -80 52 -77 185 -248 252 -322 426 -474 947 -815 1535 -1007 116 -37
321 -92 398 -105 19 -3 46 -8 60 -11 94 -18 275 -41 400 -50 84 -6 389 -6 460
0 241 20 388 43 586 90 1154 275 2101 1129 2484 2240 79 229 118 387 156 635
23 153 29 251 29 495 0 350 -23 545 -99 846 -157 614 -458 1141 -911 1594
-188 189 -423 380 -577 470 -10 5 -59 35 -110 66 -94 57 -262 144 -373 194
-254 113 -628 222 -860 251 -22 3 -51 7 -65 10 -14 3 -50 8 -80 10 -30 3 -66
8 -80 11 -28 6 -555 15 -561 9z"/>
</g>
</svg>
